HIERARCHY
ROOT Hips
{
	OFFSET -3.958830 18.904000 13.208200
	CHANNELS 6 Xposition Yposition Zposition Zrotation Yrotation Xrotation 
	JOINT LHipJoint
	{
		OFFSET 0.000000 0.000000 0.000000
		CHANNELS 3 Zrotation Yrotation Xrotation
		JOINT LeftUpLeg
		{
			OFFSET 1.800000 -1.400000 0.085000
			CHANNELS 3 Zrotation Yrotation Xrotation
			JOINT LeftLeg
			{
				OFFSET 2.215000 -6.000000 0.000000
				CHANNELS 3 Zrotation Yrotation Xrotation
				JOINT LeftFoot
				{
					OFFSET 2.500000 -6.900000 0.000000
					CHANNELS 3 Zrotation Yrotation Xrotation
					JOINT LeftToeBase
					{
						OFFSET 0.200000 -0.500000 1.950000
						CHANNELS 3 Zrotation Yrotation Xrotation
						End Site
						{
							OFFSET 0.000000 0.000000 0.000000
						}
					}
				}
			}
		}
	}
	JOINT RHipJoint
	{
		OFFSET 0.000000 0.000000 0.000000
		CHANNELS 3 Zrotation Yrotation Xrotation
		JOINT RightUpLeg
		{
			OFFSET -1.800000 -1.400000 0.085000
			CHANNELS 3 Zrotation Yrotation Xrotation
			JOINT RightLeg
			{
				OFFSET -2.215000 -6.000000 0.000000
				CHANNELS 3 Zrotation Yrotation Xrotation
				JOINT RightFoot
				{
					OFFSET -2.500000 -6.900000 0.000000
					CHANNELS 3 Zrotation Yrotation Xrotation
					JOINT RightToeBase
					{
						OFFSET -0.200000 -0.500000 1.950000
						CHANNELS 3 Zrotation Yrotation Xrotation
						End Site
						{
							OFFSET 0.000000 0.000000 0.000000
						}
					}
				}
			}
		}
	}
	JOINT LowerBack
	{
		OFFSET 0.000000 0.000000 0.000000
		CHANNELS 3 Zrotation Yrotation Xrotation
		JOINT Spine
		{
			OFFSET -0.087000 1.940000 -0.288900
			CHANNELS 3 Zrotation Yrotation Xrotation
			JOINT Spine1
			{
				OFFSET 0.000000 1.950000 0.060000
				CHANNELS 3 Zrotation Yrotation Xrotation
				JOINT Neck
				{
					OFFSET 0.000000 0.000000 0.000000
					CHANNELS 3 Zrotation Yrotation Xrotation
					JOINT Neck1
					{
						OFFSET 0.000000 1.600000 0.340000
						CHANNELS 3 Zrotation Yrotation Xrotation
						JOINT Head
						{
							OFFSET 0.000000 1.667000 -0.240000
							CHANNELS 3 Zrotation Yrotation Xrotation
							End Site
							{
								OFFSET 0.000000 0.000000 0.000000
							}
						}
					}
				}
				JOINT LeftShoulder
				{
					OFFSET 0.000000 0.000000 0.000000
					CHANNELS 3 Zrotation Yrotation Xrotation
					JOINT LeftArm
					{
						OFFSET 2.700000 1.550000 -0.730000
						CHANNELS 3 Zrotation Yrotation Xrotation
						JOINT LeftForeArm
						{
							OFFSET 5.450000 0.000000 0.000000
							CHANNELS 3 Zrotation Yrotation Xrotation
							JOINT LeftHand
							{
								OFFSET 3.450000 0.000000 0.000000
								CHANNELS 3 Zrotation Yrotation Xrotation
								JOINT LeftHandIndex1
								{
									OFFSET 0.750000 0.000000 0.000000
									CHANNELS 3 Zrotation Yrotation Xrotation
									End Site
									{
										OFFSET 0.000000 0.000000 0.000000
									}
								}
							}
						}
					}
				}
				JOINT RightShoulder
				{
					OFFSET 0.000000 0.000000 0.000000
					CHANNELS 3 Zrotation Yrotation Xrotation
					JOINT RightArm
					{
						OFFSET -2.700000 1.550000 -0.730000
						CHANNELS 3 Zrotation Yrotation Xrotation
						JOINT RightForeArm
						{
							OFFSET -5.450000 0.000000 0.000000
							CHANNELS 3 Zrotation Yrotation Xrotation
							JOINT RightHand
							{
								OFFSET -3.450000 0.000000 0.000000
								CHANNELS 3 Zrotation Yrotation Xrotation
								JOINT RightHandIndex1
								{
									OFFSET -0.750000 0.000000 0.000000
									CHANNELS 3 Zrotation Yrotation Xrotation
									End Site
									{
										OFFSET 0.000000 0.000000 0.000000
									}
								}
							}
						}
					}
				}
			}
		}
	}
}
MOTION
Frames: 6
Frame Time: 0.016667
0.682720 16.959910 -1.675830 0.202596 -13.038241 4.500230 -14.788221 12.313220 4.235194 10.448667 -3.919791 -35.271386 -10.113483 6.742543 16.845853 -0.746751 4.407209 3.068624 -0.058500 -0.364710 -0.312970 18.625628 -10.926481 2.483757 -9.023398 3.746145 -21.640242 5.348805 -5.918234 22.672713 0.064003 -3.614508 3.359951 -0.105630 0.666430 0.011030 -4.594930 -0.652391 -7.604015 18.184690 2.522192 11.412622 -4.663045 5.512389 6.324383 1.108637 -11.363163 -14.460785 -27.668973 12.780480 37.174964 0.865410 1.147070 -0.593910 -4.594957 -10.968003 7.343083 -75.988364 -10.215430 -7.312105 -14.183156 -36.047637 -1.262167 -3.807657 2.915465 0.545050 0.266940 -0.371580 0.161550 3.035111 21.347497 8.886312 61.142503 10.727881 -4.362099 4.657779 12.107527 -0.257275 2.039070 -1.137160 -0.464030 0.498020 0.407760 -0.140350 
0.723210 16.973990 -1.677770 0.513318 -12.674130 4.734811 -14.766683 12.250455 4.237477 10.647431 -3.979674 -35.199590 -10.378631 6.719490 16.529218 -0.761811 4.421195 3.065693 -0.057190 -0.358690 -0.306840 18.654023 -10.944640 2.465860 -9.473220 3.679432 -21.849563 5.194784 -5.846726 22.179402 0.071294 -3.573530 3.372340 -0.097810 0.674030 0.023410 -4.677583 -0.536696 -7.581862 18.826570 2.212682 10.845741 -6.213973 5.297344 6.638582 1.633099 -10.975094 -14.401408 -26.566348 12.544488 37.600618 0.284910 1.504070 -0.623950 -4.598605 -12.229771 7.298046 -75.437444 -10.940316 -6.585512 -10.322542 -32.966870 -2.195820 -3.845505 2.865357 0.542620 0.286680 -0.369220 0.160380 1.866967 22.214824 8.868140 62.635866 11.922159 -3.424496 4.559516 10.123183 -0.140196 2.038367 -1.157371 -0.466030 0.502400 0.411240 -0.144850 
0.792420 17.002930 -1.676610 1.518095 -12.004554 5.036957 -14.736108 12.153230 4.220123 10.907882 -4.126539 -34.650790 -11.163677 6.708072 15.767819 -0.776799 4.444193 3.060996 -0.031710 -0.323470 -0.266340 18.693527 -10.962666 2.428664 -10.885016 3.472928 -22.091345 5.370873 -5.812607 21.002582 0.074218 -3.518377 3.379575 -0.072120 0.668150 0.037460 -4.796521 -0.386063 -7.532544 19.531972 1.659405 9.767301 -9.300843 4.940546 7.262030 2.528580 -10.229971 -14.264193 -24.699051 12.178310 38.309693 -0.586970 2.118980 -0.924400 -4.464693 -14.631780 7.286623 -73.757238 -12.208225 -4.595900 -4.211834 -26.522371 -2.943377 -3.896488 2.793085 0.535010 0.308240 -0.356590 0.157830 -0.294857 23.801538 8.705794 66.186597 14.314281 -1.711837 3.789556 6.794580 0.105964 2.037094 -1.216918 -0.461410 0.508270 0.397460 -0.156310 
0.871910 17.045040 -1.677050 2.717468 -11.060074 5.543561 -14.718228 12.058836 4.206054 11.240177 -4.274745 -34.049310 -12.101679 6.730097 14.941034 -0.795115 4.502614 3.039303 -0.025910 -0.312320 -0.221820 18.724984 -10.948788 2.392281 -12.346423 3.253966 -22.370477 5.474441 -5.740557 19.671767 0.084055 -3.451356 3.384277 -0.058290 0.659940 0.053350 -4.884880 -0.293691 -7.489182 20.119791 0.951003 8.597740 -12.775003 4.480136 7.662265 3.669027 -9.339325 -13.953004 -22.399998 11.653470 38.776159 -1.887150 2.911150 -1.343940 -5.267439 -16.748656 7.281008 -70.891198 -12.413689 -2.716125 0.310181 -20.088968 -2.762226 -3.969402 2.717527 0.528720 0.335560 -0.346620 0.135650 -2.072849 24.964261 8.217534 69.840976 16.994107 0.360964 3.493228 3.168052 0.524070 2.032902 -1.272967 -0.463270 0.510210 0.397380 -0.177080 
0.956730 17.092500 -1.677900 3.757831 -10.227090 6.117690 -14.703561 12.008645 4.184372 11.813627 -4.278343 -33.129041 -13.120066 6.785893 14.043517 -0.814713 4.576669 2.998838 -0.010120 -0.299700 -0.152990 18.747451 -10.926157 2.364568 -13.380589 3.067393 -22.642277 5.148579 -5.535102 18.373137 0.082380 -3.327658 3.404895 -0.049020 0.610270 0.058890 -4.947036 -0.264109 -7.462716 20.930114 0.064299 7.693121 -16.537811 3.981854 7.791285 5.079493 -8.358493 -13.791329 -20.065946 11.220345 39.442609 -3.412690 3.936270 -2.229610 -6.431217 -18.057054 7.359503 -67.240825 -11.342865 -1.773260 2.367249 -15.224355 -2.202042 -4.010118 2.653166 0.553140 0.333190 -0.316680 0.103750 -4.019285 25.308263 7.597820 73.944698 19.309434 1.747340 3.755088 1.430033 0.824120 1.999682 -1.327783 -0.466910 0.499620 0.386710 -0.217970 
1.048960 17.119190 -1.670750 4.700216 -10.038454 7.411488 -14.704035 11.924742 4.147044 12.410272 -4.196305 -32.357466 -14.038533 6.839721 13.012188 -0.800424 4.656997 2.989587 -0.029710 -0.327030 -0.116430 18.769853 -10.860764 2.376743 -14.136903 3.073097 -23.771860 4.658084 -5.246672 17.191012 0.102918 -3.191609 3.442489 -0.059770 0.600240 0.068860 -4.991449 -0.184609 -7.413414 21.758479 -0.467396 6.206836 -20.512590 3.723134 7.629480 6.558023 -7.230375 -13.293027 -16.975117 10.325461 38.787377 -5.459880 5.166180 -1.838410 -7.335055 -17.380454 6.977356 -63.692814 -9.778370 -1.371599 2.910033 -11.687337 -1.654410 -4.087884 2.604656 0.539200 0.365660 -0.316570 0.092900 -6.390670 23.660121 6.598827 79.003812 21.254790 2.920652 4.642157 0.765764 0.957078 1.939272 -1.424001 -0.479550 0.480640 0.372370 -0.244840 
